<svg viewBox="0 0 330 200" xmlns="http://www.w3.org/2000/svg"><g><g><g><g><g><line x1="51.125" y1="174" x2="46.125" y2="174" style="visibility: inherit;" fill="rgb(0, 0, 0)" stroke="rgb(204, 204, 204)" stroke-width="1px"></line><line x1="51.125" y1="160.6153846153846" x2="46.125" y2="160.6153846153846" style="visibility: inherit;" fill="rgb(0, 0, 0)" stroke="rgb(204, 204, 204)" stroke-width="1px"></line><line x1="51.125" y1="147.23076923076923" x2="46.125" y2="147.23076923076923" style="visibility: inherit;" fill="rgb(0, 0, 0)" stroke="rgb(204, 204, 204)" stroke-width="1px"></line><line x1="51.125" y1="133.84615384615384" x2="46.125" y2="133.84615384615384" style="visibility: inherit;" fill="rgb(0, 0, 0)" stroke="rgb(204, 204, 204)" stroke-width="1px"></line><line x1="51.125" y1="120.46153846153845" x2="46.125" y2="120.46153846153845" style="visibility: inherit;" fill="rgb(0, 0, 0)" stroke="rgb(204, 204, 204)" stroke-width="1px"></line><line x1="51.125" y1="107.07692307692308" x2="46.125" y2="107.07692307692308" style="visibility: inherit;" fill="rgb(0, 0, 0)" stroke="rgb(204, 204, 204)" stroke-width="1px"></line><line x1="51.125" y1="93.69230769230771" x2="46.125" y2="93.69230769230771" style="visibility: inherit;" fill="rgb(0, 0, 0)" stroke="rgb(204, 204, 204)" stroke-width="1px"></line><line x1="51.125" y1="80.3076923076923" x2="46.125" y2="80.3076923076923" style="visibility: inherit;" fill="rgb(0, 0, 0)" stroke="rgb(204, 204, 204)" stroke-width="1px"></line><line x1="51.125" y1="66.92307692307693" x2="46.125" y2="66.92307692307693" style="visibility: inherit;" fill="rgb(0, 0, 0)" stroke="rgb(204, 204, 204)" stroke-width="1px"></line><line x1="51.125" y1="53.53846153846154" x2="46.125" y2="53.53846153846154" style="visibility: inherit;" fill="rgb(0, 0, 0)" stroke="rgb(204, 204, 204)" stroke-width="1px"></line><line x1="51.125" y1="40.15384615384617" x2="46.125" y2="40.15384615384617" style="visibility: inherit;" fill="rgb(0, 0, 0)" stroke="rgb(204, 204, 204)" stroke-width="1px"></line><line x1="51.125" y1="26.76923076923077" x2="46.125" y2="26.76923076923077" style="visibility: inherit;" fill="rgb(0, 0, 0)" stroke="rgb(204, 204, 204)" stroke-width="1px"></line><line x1="51.125" y1="13.384615384615376" x2="46.125" y2="13.384615384615376" style="visibility: inherit;" fill="rgb(0, 0, 0)" stroke="rgb(204, 204, 204)" stroke-width="1px"></line><line x1="51.125" y1="0" x2="46.125" y2="0" style="visibility: inherit;" fill="rgb(0, 0, 0)" stroke="rgb(204, 204, 204)" stroke-width="1px"></line></g><g transform="translate(41.125, 0)"><text x="0" y="174" dx="0em" dy="0.3em" style="text-anchor: end; visibility: hidden; font-family: Roboto, sans-serif; font-size: 12px; font-weight: 200;" fill="rgb(33, 33, 33)" stroke="none" stroke-width="1px">-0.1</text><text x="0" y="160.6153846153846" dx="0em" dy="0.3em" style="text-anchor: end; visibility: inherit; font-family: Roboto, sans-serif; font-size: 12px; font-weight: 200;" fill="rgb(33, 33, 33)" stroke="none" stroke-width="1px">0</text><text x="0" y="147.23076923076923" dx="0em" dy="0.3em" style="text-anchor: end; visibility: hidden; font-family: Roboto, sans-serif; font-size: 12px; font-weight: 200;" fill="rgb(33, 33, 33)" stroke="none" stroke-width="1px">0.1</text><text x="0" y="133.84615384615384" dx="0em" dy="0.3em" style="text-anchor: end; visibility: inherit; font-family: Roboto, sans-serif; font-size: 12px; font-weight: 200;" fill="rgb(33, 33, 33)" stroke="none" stroke-width="1px">0.2</text><text x="0" y="120.46153846153845" dx="0em" dy="0.3em" style="text-anchor: end; visibility: hidden; font-family: Roboto, sans-serif; font-size: 12px; font-weight: 200;" fill="rgb(33, 33, 33)" stroke="none" stroke-width="1px">0.3</text><text x="0" y="107.07692307692308" dx="0em" dy="0.3em" style="text-anchor: end; visibility: inherit; font-family: Roboto, sans-serif; font-size: 12px; font-weight: 200;" fill="rgb(33, 33, 33)" stroke="none" stroke-width="1px">0.4</text><text x="0" y="93.69230769230771" dx="0em" dy="0.3em" style="text-anchor: end; visibility: hidden; font-family: Roboto, sans-serif; font-size: 12px; font-weight: 200;" fill="rgb(33, 33, 33)" stroke="none" stroke-width="1px">0.5</text><text x="0" y="80.3076923076923" dx="0em" dy="0.3em" style="text-anchor: end; visibility: inherit; font-family: Roboto, sans-serif; font-size: 12px; font-weight: 200;" fill="rgb(33, 33, 33)" stroke="none" stroke-width="1px">0.6</text><text x="0" y="66.92307692307693" dx="0em" dy="0.3em" style="text-anchor: end; visibility: hidden; font-family: Roboto, sans-serif; font-size: 12px; font-weight: 200;" fill="rgb(33, 33, 33)" stroke="none" stroke-width="1px">0.7</text><text x="0" y="53.53846153846154" dx="0em" dy="0.3em" style="text-anchor: end; visibility: inherit; font-family: Roboto, sans-serif; font-size: 12px; font-weight: 200;" fill="rgb(33, 33, 33)" stroke="none" stroke-width="1px">0.8</text><text x="0" y="40.15384615384617" dx="0em" dy="0.3em" style="text-anchor: end; visibility: hidden; font-family: Roboto, sans-serif; font-size: 12px; font-weight: 200;" fill="rgb(33, 33, 33)" stroke="none" stroke-width="1px">0.9</text><text x="0" y="26.76923076923077" dx="0em" dy="0.3em" style="text-anchor: end; visibility: inherit; font-family: Roboto, sans-serif; font-size: 12px; font-weight: 200;" fill="rgb(33, 33, 33)" stroke="none" stroke-width="1px">1</text><text x="0" y="13.384615384615376" dx="0em" dy="0.3em" style="text-anchor: end; visibility: hidden; font-family: Roboto, sans-serif; font-size: 12px; font-weight: 200;" fill="rgb(33, 33, 33)" stroke="none" stroke-width="1px">1.1</text><text x="0" y="0" dx="0em" dy="0.3em" style="text-anchor: end; visibility: hidden; font-family: Roboto, sans-serif; font-size: 12px; font-weight: 200;" fill="rgb(33, 33, 33)" stroke="none" stroke-width="1px">1.2</text></g><line x1="51.125" y1="0" x2="51.125" y2="174" fill="rgb(0, 0, 0)" stroke="rgb(204, 204, 204)" stroke-width="1px"></line></g></g><g transform="translate(51, 0)" clip-path="url(#clip_0)"><clipPath id="clip_0"><rect width="278" height="174"></rect></clipPath><g><g><g><line x1="0" y1="0" x2="0" y2="174" fill="rgb(0, 0, 0)" stroke="rgb(66, 66, 66)" stroke-width="1px" opacity="0.25"></line><line x1="30.98611111111111" y1="0" x2="30.98611111111111" y2="174" fill="rgb(0, 0, 0)" stroke="rgb(66, 66, 66)" stroke-width="1px" opacity="0.25"></line><line x1="61.97222222222222" y1="0" x2="61.97222222222222" y2="174" fill="rgb(0, 0, 0)" stroke="rgb(66, 66, 66)" stroke-width="1px" opacity="0.25"></line><line x1="92.95833333333333" y1="0" x2="92.95833333333333" y2="174" fill="rgb(0, 0, 0)" stroke="rgb(66, 66, 66)" stroke-width="1px" opacity="0.25"></line><line x1="123.94444444444444" y1="0" x2="123.94444444444444" y2="174" fill="rgb(0, 0, 0)" stroke="rgb(66, 66, 66)" stroke-width="1px" opacity="0.25"></line><line x1="154.93055555555557" y1="0" x2="154.93055555555557" y2="174" fill="rgb(0, 0, 0)" stroke="rgb(66, 66, 66)" stroke-width="1px" opacity="0.25"></line><line x1="185.91666666666666" y1="0" x2="185.91666666666666" y2="174" fill="rgb(0, 0, 0)" stroke="rgb(66, 66, 66)" stroke-width="1px" opacity="0.25"></line><line x1="216.90277777777777" y1="0" x2="216.90277777777777" y2="174" fill="rgb(0, 0, 0)" stroke="rgb(66, 66, 66)" stroke-width="1px" opacity="0.25"></line><line x1="247.88888888888889" y1="0" x2="247.88888888888889" y2="174" fill="rgb(0, 0, 0)" stroke="rgb(66, 66, 66)" stroke-width="1px" opacity="0.25"></line><line x1="278.875" y1="0" x2="278.875" y2="174" fill="rgb(0, 0, 0)" stroke="rgb(66, 66, 66)" stroke-width="1px" opacity="0.25"></line></g><g><line x1="0" y1="174" x2="278.875" y2="174" fill="rgb(0, 0, 0)" stroke="rgb(66, 66, 66)" stroke-width="1px" opacity="0.25"></line><line x1="0" y1="160.6153846153846" x2="278.875" y2="160.6153846153846" fill="rgb(0, 0, 0)" stroke="rgb(66, 66, 66)" stroke-width="1px" opacity="0.25"></line><line x1="0" y1="147.23076923076923" x2="278.875" y2="147.23076923076923" fill="rgb(0, 0, 0)" stroke="rgb(66, 66, 66)" stroke-width="1px" opacity="0.25"></line><line x1="0" y1="133.84615384615384" x2="278.875" y2="133.84615384615384" fill="rgb(0, 0, 0)" stroke="rgb(66, 66, 66)" stroke-width="1px" opacity="0.25"></line><line x1="0" y1="120.46153846153845" x2="278.875" y2="120.46153846153845" fill="rgb(0, 0, 0)" stroke="rgb(66, 66, 66)" stroke-width="1px" opacity="0.25"></line><line x1="0" y1="107.07692307692308" x2="278.875" y2="107.07692307692308" fill="rgb(0, 0, 0)" stroke="rgb(66, 66, 66)" stroke-width="1px" opacity="0.25"></line><line x1="0" y1="93.69230769230771" x2="278.875" y2="93.69230769230771" fill="rgb(0, 0, 0)" stroke="rgb(66, 66, 66)" stroke-width="1px" opacity="0.25"></line><line x1="0" y1="80.3076923076923" x2="278.875" y2="80.3076923076923" fill="rgb(0, 0, 0)" stroke="rgb(66, 66, 66)" stroke-width="1px" opacity="0.25"></line><line x1="0" y1="66.92307692307693" x2="278.875" y2="66.92307692307693" fill="rgb(0, 0, 0)" stroke="rgb(66, 66, 66)" stroke-width="1px" opacity="0.25"></line><line x1="0" y1="53.53846153846154" x2="278.875" y2="53.53846153846154" fill="rgb(0, 0, 0)" stroke="rgb(66, 66, 66)" stroke-width="1px" opacity="0.25"></line><line x1="0" y1="40.15384615384617" x2="278.875" y2="40.15384615384617" fill="rgb(0, 0, 0)" stroke="rgb(66, 66, 66)" stroke-width="1px" opacity="0.25"></line><line x1="0" y1="26.76923076923077" x2="278.875" y2="26.76923076923077" fill="rgb(0, 0, 0)" stroke="rgb(66, 66, 66)" stroke-width="1px" opacity="0.25"></line><line x1="0" y1="13.384615384615376" x2="278.875" y2="13.384615384615376" fill="rgb(0, 0, 0)" stroke="rgb(66, 66, 66)" stroke-width="1px" opacity="0.25"></line><line x1="0" y1="0" x2="278.875" y2="0" fill="rgb(0, 0, 0)" stroke="rgb(66, 66, 66)" stroke-width="1px" opacity="0.25"></line></g></g></g><g><g><line x1="0" y1="160.6153846153846" x2="278.875" y2="160.6153846153846" fill="rgb(0, 0, 0)" stroke="rgb(153, 153, 153)" stroke-width="1.5px"></line></g></g><g><g><line x1="30.98611111111111" y1="0" x2="30.98611111111111" y2="174" fill="rgb(0, 0, 0)" stroke="rgb(153, 153, 153)" stroke-width="1.5px"></line></g></g><g><g><g><g><g><path stroke="rgb(255, 112, 67)" stroke-width="2px" d="M41.83125,-3.5213028575680347L43.38055555555555,2.6272734918061325L44.929861111111116,8.421145718146521L46.479166666666664,14.535355887602183L48.02847222222222,20.204699048516616L49.57777777777778,25.028782385951466L51.12708333333333,29.84743458967163L52.67638888888889,34.688935569878716L54.22569444444444,38.85193219946067L55.775000000000006,42.76477633525059L57.324305555555554,47.68306165071013L58.87361111111111,51.14459078158026L60.422916666666666,54.25247394556945L61.97222222222222,59.39594989090001L63.52152777777778,64.04291829402953L65.07083333333334,68.4568269413708L66.62013888888889,71.59538104374144L68.16944444444444,75.13862001667971L69.71875,80.17916721940539L71.26805555555555,83.78817459989826L72.81736111111111,86.93130339198702L74.36666666666666,90.97686437260569L75.91597222222221,94.85322841520669L77.46527777777779,97.60929798694671L79.01458333333333,100.99224439660097L80.56388888888888,102.71103524177907L82.11319444444445,106.21676038606466L83.6625,110.6341364336859L85.21180555555556,110.93437117298176L86.7611111111111,113.57407278137008L88.31041666666667,117.04720556781615L89.85972222222223,118.26304541296392L91.40902777777778,121.5892573272397L92.95833333333333,124.473394930448L94.50763888888889,126.0666727877116L96.05694444444444,126.88826693672473L97.60624999999999,128.85735110583715L99.15555555555557,131.08990919713798L100.70486111111111,131.58801516649038L102.25416666666666,133.77192481762486L103.80347222222223,132.87572506263118L105.35277777777777,134.10112974899795L106.90208333333334,136.20067468249474L108.45138888888889,137.08615978614338L110.00069444444443,137.28012570634627L111.55000000000001,139.82164795016004L113.09930555555556,141.8887313625444L114.64861111111111,142.66625479861477L116.19791666666667,142.40735071441605L117.74722222222222,143.98653100547207L119.29652777777777,143.25953940704272L120.84583333333333,143.46592695621916L122.3951388888889,144.00433497080786L123.94444444444444,144.43662290657696L125.49375,145.24716076278082L127.04305555555555,145.90883986459517L128.59236111111113,146.1923839147194L130.14166666666668,147.19326605998071L131.69097222222223,148.0008010725946L133.24027777777778,147.41216370596345L134.78958333333333,147.6695027996669L136.33888888888887,147.1201479794631L137.88819444444445,147.5573351516478L139.4375,148.51344618038024L140.98680555555555,148.4696557379062L142.5361111111111,149.35360298033785L144.08541666666667,149.7489661176347L145.63472222222222,150.70291346674452L147.18402777777777,148.97212972308523L148.73333333333332,149.19897599534312L150.28263888888887,150.24842261246056L151.83194444444442,149.9347673694105L153.38125000000002,151.00280456642713L154.93055555555557,151.12534270823244L156.47986111111112,150.9522258968643L158.02916666666667,151.54528125528824L159.57847222222222,151.68358496026642L161.12777777777777,152.1813255606036L162.67708333333334,151.64377709972504L164.2263888888889,152.52971336782866L165.77569444444444,153.20273701229078L167.325,153.9642172719052L168.87430555555554,153.3513522003483L170.42361111111111,152.37854097121993L171.97291666666666,151.6336776806036L173.5222222222222,152.3146088518113L175.0715277777778,153.55523363198836L176.62083333333334,153.8787269215391L178.17013888888889,152.82729045367185L179.71944444444446,153.3502039439895L181.26875,153.9842883433582L182.81805555555556,154.44405359540474L184.3673611111111,153.3252365473065L185.91666666666666,153.4367314062714L187.46597222222223,153.49697778439796L189.01527777777778,154.6656826870311L190.56458333333333,154.53166975093205L192.11388888888888,154.17567844466987L193.66319444444443,154.28045322601432L195.21249999999998,153.85471531902718L196.76180555555558,154.48605674781L198.31111111111113,154.542781341355L199.86041666666668,154.2508550074308L201.40972222222223,155.3299301006515L202.95902777777778,154.7812611231233L204.50833333333333,154.56035569308963L206.0576388888889,154.852406108372L207.60694444444445,155.09718189018983L209.15625,155.0763824187399L210.70555555555555,154.48311148714495L212.2548611111111,154.8116833724467L213.80416666666667,155.38695337475514L215.35347222222222,155.2140254604428L216.90277777777777,154.61762156375974L218.45208333333332,155.58475721627633L220.00138888888887,156.12399724389593L221.55069444444442,156.02793414384183L223.10000000000002,156.40598505568997L224.64930555555557,157.07277491909838L226.19861111111112,157.2043066448402L227.74791666666667,157.04551549436314L229.29722222222222,156.8087890922389L230.84652777777777,156.99653662984966L232.39583333333334,156.57799071655373L233.9451388888889,157.06925908194785L235.49444444444444,156.68967247700164L237.04375,157.09343355254074L238.59305555555554,156.27608100938093L240.14236111111111,156.45168803025888L241.69166666666666,156.2796779694763L243.2409722222222,156.40413122151398L244.7902777777778,156.43143567101924L246.33958333333334,156.30990949343627L247.88888888888889,157.1456738739852L249.43819444444446,156.89471939795462L250.9875,157.70212125168956L252.53680555555556,158.2042068804811L254.0861111111111,157.86046962922188L255.63541666666666,156.6268929907037L257.18472222222226,157.19253058428302L258.7340277777778,157.79478307963862L260.28333333333336,157.2412746457957L261.8326388888889,157.86613123675096L263.38194444444446,157.41347593013086" style="fill: none;" fill="none"></path></g></g></g></g><g opacity="0.2"><g><g><g><path stroke="rgb(255, 112, 67)" stroke-width="2px" d="M38.73263888888889,-4.277651089888376L40.28194444444444,2.394976835984446L41.83125,6.915993910569407L43.38055555555555,11.591956835526682L44.929861111111116,16.96598185025728L46.479166666666664,23.614245414733887L48.02847222222222,28.657293264682462L49.57777777777778,32.238654943612886L51.12708333333333,37.0596791597513L52.67638888888889,41.94170203575723L54.22569444444444,45.091533697568465L55.775000000000006,48.63128289809594L57.324305555555554,55.05840837038481L58.87361111111111,56.33600559601419L60.422916666666666,58.91382523683402L61.97222222222222,67.11069367482114L63.52152777777778,71.01311604793256L65.07083333333334,75.07754467083859L66.62013888888889,76.30315023202164L68.16944444444444,80.45343650304355L69.71875,87.7399521974417L71.26805555555555,89.20167027986967L72.81736111111111,91.64598853771506L74.36666666666666,97.04519963264465L75.91597222222221,100.66777090842908L77.46527777777779,101.743400821319L79.01458333333333,106.06666288926053L80.56388888888888,105.28922116756439L82.11319444444445,111.47534768397992L83.6625,117.26020018871014L85.21180555555556,111.38472326902242L86.7611111111111,117.53362512588501L88.31041666666667,122.25690469375024L89.85972222222223,120.08680516939897L91.40902777777778,126.57857518012707L92.95833333333333,128.79960132562198L94.50763888888889,128.45658957041226L96.05694444444444,128.12065815925598L97.60624999999999,131.81097735808447L99.15555555555557,134.43874633312225L100.70486111111111,132.3351741203895L102.25416666666666,137.0477892939861L103.80347222222223,131.5314254302245L105.35277777777777,135.93923677847937L106.90208333333334,139.3499920826692L108.45138888888889,138.41438744159845L110.00069444444443,137.57107458664822L111.55000000000001,143.6339313158622L113.09930555555556,144.98935648111197L114.64861111111111,143.8325399527183L116.19791666666667,142.01899458811835L117.74722222222222,146.3553014420546L119.29652777777777,142.16905200939914L120.84583333333333,143.7755082799838L122.3951388888889,144.81194699269076L123.94444444444444,145.08505481023053L125.49375,146.46296754708658L127.04305555555555,146.90135851731668L128.59236111111113,146.61769998990573L130.14166666666668,148.69458927787267L131.69097222222223,149.21210359151547L133.24027777777778,146.52920765601672L134.78958333333333,148.05551144022206L136.33888888888887,146.2961157491574L137.88819444444445,148.21311590992488L139.4375,149.9476127234789L140.98680555555555,148.40397007419512L142.5361111111111,150.67952384398535L144.08541666666667,150.34201082357993L145.63472222222222,152.13383449040927L147.18402777777777,146.37595410759633L148.73333333333332,149.53924540372995L150.28263888888887,151.8225925381367L151.83194444444442,149.4642845048354L153.38125000000002,152.60486036195203L154.93055555555557,151.3091499209404L156.47986111111112,150.69255067981206L158.02916666666667,152.4348642929242L159.57847222222222,151.89104051773364L161.12777777777777,152.92793646110937L162.67708333333334,150.8374544084072L164.2263888888889,153.8586177699841L165.77569444444444,154.21227247898395L167.325,155.10643766132685L168.87430555555554,152.43205459301288L170.42361111111111,150.91932412752737L171.97291666666666,150.51638274467908L173.5222222222222,153.33600560862283L175.0715277777778,155.41617080225393L176.62083333333334,154.36396685586527L178.17013888888889,151.25013575187097L179.71944444444446,154.13457417946597L181.26875,154.93541494241128L182.81805555555556,155.1337014734745L184.3673611111111,151.64701097515913L185.91666666666666,153.6039736947188L187.46597222222223,153.58734735158774L189.01527777777778,156.41874004098085L190.56458333333333,154.3306503467835L192.11388888888888,153.6416914852766L193.66319444444443,154.43761539803103L195.21249999999998,153.2161084585465L196.76180555555558,155.43306889098426L198.31111111111113,154.6278682316725L199.86041666666668,153.8129655065445L201.40972222222223,156.94854274048254L202.95902777777778,153.958257656831L204.50833333333333,154.22899754803916L206.0576388888889,155.29048173129559L207.60694444444445,155.46434556291655L209.15625,155.04518321156502L210.70555555555555,153.59320508975247L212.2548611111111,155.3045412003994L213.80416666666667,156.24985837821777L215.35347222222222,154.95463358897427L216.90277777777777,153.72301571873518L218.45208333333332,157.03546069505123L220.00138888888887,156.93285728532533L221.55069444444442,155.8838394937607L223.10000000000002,156.97306142346218L224.64930555555557,158.07295971421095L226.19861111111112,157.4016042334529L227.74791666666667,156.80732876864764L229.29722222222222,156.4536994890525L230.84652777777777,157.27815793626584L232.39583333333334,155.95017184660986L233.9451388888889,157.806161630039L235.49444444444444,156.12029256958226L237.04375,157.69907516584948L238.59305555555554,155.05005219464118L240.14236111111111,156.7150985615758L241.69166666666666,156.02166287830244L243.2409722222222,156.59081109957054L244.7902777777778,156.47239234527717L246.33958333333334,156.12762022706178L247.88888888888889,158.39932044480855L249.43819444444446,156.51828768390874L250.9875,158.913224032292L252.53680555555556,158.95733532366845L254.0861111111111,157.34486375233303L255.63541666666666,154.77652803292642L257.18472222222226,158.04098697465201L258.7340277777778,158.6981618226721L260.28333333333336,156.4110119950313L261.8326388888889,158.80341612318387L263.38194444444446,156.73449297020068" style="fill: none;" fill="none"></path></g></g></g></g></g></g><g transform="translate(51, 174)" clip-path="url(#clip_1)"><clipPath id="clip_1"><rect width="278" height="26"></rect></clipPath><g><g><line x1="0" y1="0" x2="0" y2="5" style="visibility: inherit;" fill="rgb(0, 0, 0)" stroke="rgb(204, 204, 204)" stroke-width="1px"></line><line x1="30.98611111111111" y1="0" x2="30.98611111111111" y2="5" style="visibility: inherit;" fill="rgb(0, 0, 0)" stroke="rgb(204, 204, 204)" stroke-width="1px"></line><line x1="61.97222222222222" y1="0" x2="61.97222222222222" y2="5" style="visibility: inherit;" fill="rgb(0, 0, 0)" stroke="rgb(204, 204, 204)" stroke-width="1px"></line><line x1="92.95833333333333" y1="0" x2="92.95833333333333" y2="5" style="visibility: inherit;" fill="rgb(0, 0, 0)" stroke="rgb(204, 204, 204)" stroke-width="1px"></line><line x1="123.94444444444444" y1="0" x2="123.94444444444444" y2="5" style="visibility: inherit;" fill="rgb(0, 0, 0)" stroke="rgb(204, 204, 204)" stroke-width="1px"></line><line x1="154.93055555555557" y1="0" x2="154.93055555555557" y2="5" style="visibility: inherit;" fill="rgb(0, 0, 0)" stroke="rgb(204, 204, 204)" stroke-width="1px"></line><line x1="185.91666666666666" y1="0" x2="185.91666666666666" y2="5" style="visibility: inherit;" fill="rgb(0, 0, 0)" stroke="rgb(204, 204, 204)" stroke-width="1px"></line><line x1="216.90277777777777" y1="0" x2="216.90277777777777" y2="5" style="visibility: inherit;" fill="rgb(0, 0, 0)" stroke="rgb(204, 204, 204)" stroke-width="1px"></line><line x1="247.88888888888889" y1="0" x2="247.88888888888889" y2="5" style="visibility: inherit;" fill="rgb(0, 0, 0)" stroke="rgb(204, 204, 204)" stroke-width="1px"></line><line x1="278.875" y1="0" x2="278.875" y2="5" style="visibility: inherit;" fill="rgb(0, 0, 0)" stroke="rgb(204, 204, 204)" stroke-width="1px"></line></g><g transform="translate(0, 8)"><text x="0" y="0" dx="0em" dy="0.95em" style="text-anchor: middle; visibility: hidden; font-family: Roboto, sans-serif; font-size: 12px; font-weight: 200;" fill="rgb(33, 33, 33)" stroke="none" stroke-width="1px">-20</text><text x="30.98611111111111" y="0" dx="0em" dy="0.95em" style="text-anchor: middle; visibility: inherit; font-family: Roboto, sans-serif; font-size: 12px; font-weight: 200;" fill="rgb(33, 33, 33)" stroke="none" stroke-width="1px">0</text><text x="61.97222222222222" y="0" dx="0em" dy="0.95em" style="text-anchor: middle; visibility: inherit; font-family: Roboto, sans-serif; font-size: 12px; font-weight: 200;" fill="rgb(33, 33, 33)" stroke="none" stroke-width="1px">20</text><text x="92.95833333333333" y="0" dx="0em" dy="0.95em" style="text-anchor: middle; visibility: inherit; font-family: Roboto, sans-serif; font-size: 12px; font-weight: 200;" fill="rgb(33, 33, 33)" stroke="none" stroke-width="1px">40</text><text x="123.94444444444444" y="0" dx="0em" dy="0.95em" style="text-anchor: middle; visibility: inherit; font-family: Roboto, sans-serif; font-size: 12px; font-weight: 200;" fill="rgb(33, 33, 33)" stroke="none" stroke-width="1px">60</text><text x="154.93055555555557" y="0" dx="0em" dy="0.95em" style="text-anchor: middle; visibility: inherit; font-family: Roboto, sans-serif; font-size: 12px; font-weight: 200;" fill="rgb(33, 33, 33)" stroke="none" stroke-width="1px">80</text><text x="185.91666666666666" y="0" dx="0em" dy="0.95em" style="text-anchor: middle; visibility: inherit; font-family: Roboto, sans-serif; font-size: 12px; font-weight: 200;" fill="rgb(33, 33, 33)" stroke="none" stroke-width="1px">100</text><text x="216.90277777777777" y="0" dx="0em" dy="0.95em" style="text-anchor: middle; visibility: inherit; font-family: Roboto, sans-serif; font-size: 12px; font-weight: 200;" fill="rgb(33, 33, 33)" stroke="none" stroke-width="1px">120</text><text x="247.88888888888889" y="0" dx="0em" dy="0.95em" style="text-anchor: middle; visibility: inherit; font-family: Roboto, sans-serif; font-size: 12px; font-weight: 200;" fill="rgb(33, 33, 33)" stroke="none" stroke-width="1px">140</text><text x="278.875" y="0" dx="0em" dy="0.95em" style="text-anchor: middle; visibility: hidden; font-family: Roboto, sans-serif; font-size: 12px; font-weight: 200;" fill="rgb(33, 33, 33)" stroke="none" stroke-width="1px">160</text></g><line x1="0" y1="0" x2="278.875" y2="0" fill="rgb(0, 0, 0)" stroke="rgb(204, 204, 204)" stroke-width="1px"></line></g></g></g></g></svg>