<svg viewBox="0 0 330 200" xmlns="http://www.w3.org/2000/svg"><g><g><g><g><g><line x1="51.125" y1="174" x2="46.125" y2="174" style="visibility: inherit;" fill="rgb(0, 0, 0)" stroke="rgb(204, 204, 204)" stroke-width="1px"></line><line x1="51.125" y1="156.60000000000002" x2="46.125" y2="156.60000000000002" style="visibility: inherit;" fill="rgb(0, 0, 0)" stroke="rgb(204, 204, 204)" stroke-width="1px"></line><line x1="51.125" y1="139.20000000000002" x2="46.125" y2="139.20000000000002" style="visibility: inherit;" fill="rgb(0, 0, 0)" stroke="rgb(204, 204, 204)" stroke-width="1px"></line><line x1="51.125" y1="121.8" x2="46.125" y2="121.8" style="visibility: inherit;" fill="rgb(0, 0, 0)" stroke="rgb(204, 204, 204)" stroke-width="1px"></line><line x1="51.125" y1="104.40000000000002" x2="46.125" y2="104.40000000000002" style="visibility: inherit;" fill="rgb(0, 0, 0)" stroke="rgb(204, 204, 204)" stroke-width="1px"></line><line x1="51.125" y1="87" x2="46.125" y2="87" style="visibility: inherit;" fill="rgb(0, 0, 0)" stroke="rgb(204, 204, 204)" stroke-width="1px"></line><line x1="51.125" y1="69.59999999999998" x2="46.125" y2="69.59999999999998" style="visibility: inherit;" fill="rgb(0, 0, 0)" stroke="rgb(204, 204, 204)" stroke-width="1px"></line><line x1="51.125" y1="52.19999999999997" x2="46.125" y2="52.19999999999997" style="visibility: inherit;" fill="rgb(0, 0, 0)" stroke="rgb(204, 204, 204)" stroke-width="1px"></line><line x1="51.125" y1="34.79999999999993" x2="46.125" y2="34.79999999999993" style="visibility: inherit;" fill="rgb(0, 0, 0)" stroke="rgb(204, 204, 204)" stroke-width="1px"></line><line x1="51.125" y1="17.400000000000016" x2="46.125" y2="17.400000000000016" style="visibility: inherit;" fill="rgb(0, 0, 0)" stroke="rgb(204, 204, 204)" stroke-width="1px"></line><line x1="51.125" y1="0" x2="46.125" y2="0" style="visibility: inherit;" fill="rgb(0, 0, 0)" stroke="rgb(204, 204, 204)" stroke-width="1px"></line></g><g transform="translate(41.125, 0)"><text x="0" y="174" dx="0em" dy="0.3em" style="text-anchor: end; visibility: hidden; font-family: Roboto, sans-serif; font-size: 12px; font-weight: 200;" fill="rgb(33, 33, 33)" stroke="none" stroke-width="1px">0.4</text><text x="0" y="156.60000000000002" dx="0em" dy="0.3em" style="text-anchor: end; visibility: inherit; font-family: Roboto, sans-serif; font-size: 12px; font-weight: 200;" fill="rgb(33, 33, 33)" stroke="none" stroke-width="1px">0.42</text><text x="0" y="139.20000000000002" dx="0em" dy="0.3em" style="text-anchor: end; visibility: hidden; font-family: Roboto, sans-serif; font-size: 12px; font-weight: 200;" fill="rgb(33, 33, 33)" stroke="none" stroke-width="1px">0.44</text><text x="0" y="121.8" dx="0em" dy="0.3em" style="text-anchor: end; visibility: inherit; font-family: Roboto, sans-serif; font-size: 12px; font-weight: 200;" fill="rgb(33, 33, 33)" stroke="none" stroke-width="1px">0.46</text><text x="0" y="104.40000000000002" dx="0em" dy="0.3em" style="text-anchor: end; visibility: hidden; font-family: Roboto, sans-serif; font-size: 12px; font-weight: 200;" fill="rgb(33, 33, 33)" stroke="none" stroke-width="1px">0.48</text><text x="0" y="87" dx="0em" dy="0.3em" style="text-anchor: end; visibility: inherit; font-family: Roboto, sans-serif; font-size: 12px; font-weight: 200;" fill="rgb(33, 33, 33)" stroke="none" stroke-width="1px">0.5</text><text x="0" y="69.59999999999998" dx="0em" dy="0.3em" style="text-anchor: end; visibility: hidden; font-family: Roboto, sans-serif; font-size: 12px; font-weight: 200;" fill="rgb(33, 33, 33)" stroke="none" stroke-width="1px">0.52</text><text x="0" y="52.19999999999997" dx="0em" dy="0.3em" style="text-anchor: end; visibility: inherit; font-family: Roboto, sans-serif; font-size: 12px; font-weight: 200;" fill="rgb(33, 33, 33)" stroke="none" stroke-width="1px">0.54</text><text x="0" y="34.79999999999993" dx="0em" dy="0.3em" style="text-anchor: end; visibility: hidden; font-family: Roboto, sans-serif; font-size: 12px; font-weight: 200;" fill="rgb(33, 33, 33)" stroke="none" stroke-width="1px">0.56</text><text x="0" y="17.400000000000016" dx="0em" dy="0.3em" style="text-anchor: end; visibility: inherit; font-family: Roboto, sans-serif; font-size: 12px; font-weight: 200;" fill="rgb(33, 33, 33)" stroke="none" stroke-width="1px">0.58</text><text x="0" y="0" dx="0em" dy="0.3em" style="text-anchor: end; visibility: hidden; font-family: Roboto, sans-serif; font-size: 12px; font-weight: 200;" fill="rgb(33, 33, 33)" stroke="none" stroke-width="1px">0.6</text></g><line x1="51.125" y1="0" x2="51.125" y2="174" fill="rgb(0, 0, 0)" stroke="rgb(204, 204, 204)" stroke-width="1px"></line></g></g><g transform="translate(51, 0)" clip-path="url(#clip_0)"><clipPath id="clip_0"><rect width="278" height="174"></rect></clipPath><g><g><g><line x1="0" y1="0" x2="0" y2="174" fill="rgb(0, 0, 0)" stroke="rgb(66, 66, 66)" stroke-width="1px" opacity="0.25"></line><line x1="30.98611111111111" y1="0" x2="30.98611111111111" y2="174" fill="rgb(0, 0, 0)" stroke="rgb(66, 66, 66)" stroke-width="1px" opacity="0.25"></line><line x1="61.97222222222222" y1="0" x2="61.97222222222222" y2="174" fill="rgb(0, 0, 0)" stroke="rgb(66, 66, 66)" stroke-width="1px" opacity="0.25"></line><line x1="92.95833333333333" y1="0" x2="92.95833333333333" y2="174" fill="rgb(0, 0, 0)" stroke="rgb(66, 66, 66)" stroke-width="1px" opacity="0.25"></line><line x1="123.94444444444444" y1="0" x2="123.94444444444444" y2="174" fill="rgb(0, 0, 0)" stroke="rgb(66, 66, 66)" stroke-width="1px" opacity="0.25"></line><line x1="154.93055555555557" y1="0" x2="154.93055555555557" y2="174" fill="rgb(0, 0, 0)" stroke="rgb(66, 66, 66)" stroke-width="1px" opacity="0.25"></line><line x1="185.91666666666666" y1="0" x2="185.91666666666666" y2="174" fill="rgb(0, 0, 0)" stroke="rgb(66, 66, 66)" stroke-width="1px" opacity="0.25"></line><line x1="216.90277777777777" y1="0" x2="216.90277777777777" y2="174" fill="rgb(0, 0, 0)" stroke="rgb(66, 66, 66)" stroke-width="1px" opacity="0.25"></line><line x1="247.88888888888889" y1="0" x2="247.88888888888889" y2="174" fill="rgb(0, 0, 0)" stroke="rgb(66, 66, 66)" stroke-width="1px" opacity="0.25"></line><line x1="278.875" y1="0" x2="278.875" y2="174" fill="rgb(0, 0, 0)" stroke="rgb(66, 66, 66)" stroke-width="1px" opacity="0.25"></line></g><g><line x1="0" y1="174" x2="278.875" y2="174" fill="rgb(0, 0, 0)" stroke="rgb(66, 66, 66)" stroke-width="1px" opacity="0.25"></line><line x1="0" y1="156.60000000000002" x2="278.875" y2="156.60000000000002" fill="rgb(0, 0, 0)" stroke="rgb(66, 66, 66)" stroke-width="1px" opacity="0.25"></line><line x1="0" y1="139.20000000000002" x2="278.875" y2="139.20000000000002" fill="rgb(0, 0, 0)" stroke="rgb(66, 66, 66)" stroke-width="1px" opacity="0.25"></line><line x1="0" y1="121.8" x2="278.875" y2="121.8" fill="rgb(0, 0, 0)" stroke="rgb(66, 66, 66)" stroke-width="1px" opacity="0.25"></line><line x1="0" y1="104.40000000000002" x2="278.875" y2="104.40000000000002" fill="rgb(0, 0, 0)" stroke="rgb(66, 66, 66)" stroke-width="1px" opacity="0.25"></line><line x1="0" y1="87" x2="278.875" y2="87" fill="rgb(0, 0, 0)" stroke="rgb(66, 66, 66)" stroke-width="1px" opacity="0.25"></line><line x1="0" y1="69.59999999999998" x2="278.875" y2="69.59999999999998" fill="rgb(0, 0, 0)" stroke="rgb(66, 66, 66)" stroke-width="1px" opacity="0.25"></line><line x1="0" y1="52.19999999999997" x2="278.875" y2="52.19999999999997" fill="rgb(0, 0, 0)" stroke="rgb(66, 66, 66)" stroke-width="1px" opacity="0.25"></line><line x1="0" y1="34.79999999999993" x2="278.875" y2="34.79999999999993" fill="rgb(0, 0, 0)" stroke="rgb(66, 66, 66)" stroke-width="1px" opacity="0.25"></line><line x1="0" y1="17.400000000000016" x2="278.875" y2="17.400000000000016" fill="rgb(0, 0, 0)" stroke="rgb(66, 66, 66)" stroke-width="1px" opacity="0.25"></line><line x1="0" y1="0" x2="278.875" y2="0" fill="rgb(0, 0, 0)" stroke="rgb(66, 66, 66)" stroke-width="1px" opacity="0.25"></line></g></g></g><g><g><line x1="0" y1="522.0000000000001" x2="278.875" y2="522.0000000000001" fill="rgb(0, 0, 0)" stroke="rgb(153, 153, 153)" stroke-width="1.5px"></line></g></g><g><g><line x1="30.98611111111111" y1="0" x2="30.98611111111111" y2="174" fill="rgb(0, 0, 0)" stroke="rgb(153, 153, 153)" stroke-width="1.5px"></line></g></g><g><g><g><g><g><path stroke="rgb(255, 112, 67)" stroke-width="2px" d="M38.73263888888889,-6.447835457399401L40.28194444444444,8.162299190984998L41.83125,13.89185349390059L43.38055555555555,14.000225985820377L44.929861111111116,22.27548739426534L46.479166666666664,25.51626880819193L48.02847222222222,31.70227658994067L49.57777777777778,31.87953182742387L51.12708333333333,31.579073904269425L52.67638888888889,29.55623986282441L54.22569444444444,27.021869234987687L55.775000000000006,29.824144017564777L57.324305555555554,35.76727449611684L58.87361111111111,39.03096650568441L60.422916666666666,38.60035550735326L61.97222222222222,36.37287686319528L63.52152777777778,41.40290612351489L65.07083333333334,46.991141930637255L66.62013888888889,56.03011687820306L68.16944444444444,39.77161671656436L69.71875,49.31324926088036L71.26805555555555,49.559279474501814L72.81736111111111,57.940753141034044L74.36666666666666,66.94634961918986L75.91597222222221,72.97637408132856L77.46527777777779,76.06726019261257L79.01458333333333,78.6751768273986L80.56388888888888,79.65627642827516L82.11319444444445,78.95444664200907L83.6625,87.30066025829278L85.21180555555556,91.28063263925726L86.7611111111111,105.17336627527371L88.31041666666667,113.97638486519051L89.85972222222223,111.19623060800218L91.40902777777778,113.08217480470257L92.95833333333333,112.69044937253985L94.50763888888889,114.3257992850605L96.05694444444444,119.13390208635819L97.60624999999999,113.18974385897006L99.15555555555557,117.19515394184653L100.70486111111111,124.96863233536027L102.25416666666666,121.6518361297538L103.80347222222223,127.16026638333491L105.35277777777777,130.25342000959003L106.90208333333334,124.24009574308452L108.45138888888889,125.26566660914327L110.00069444444443,126.03587200948083L111.55000000000001,126.32614432995692L113.09930555555556,134.2328212691992L114.64861111111111,133.81735878191245L116.19791666666667,136.63586392999977L117.74722222222222,140.45959855915027L119.29652777777777,134.69525500417168L120.84583333333333,136.1451342837837L122.3951388888889,137.49788307767085L123.94444444444444,136.95488662493807L125.49375,139.11662303789018L127.04305555555555,148.5141696416353L128.59236111111113,146.678022663773L130.14166666666668,146.76832854806239L131.69097222222223,147.64654605423726L133.24027777777778,141.47740970155783L134.78958333333333,145.85551391900302L136.33888888888887,141.98278176105455L137.88819444444445,142.00076422283914L139.4375,142.84610408061658L140.98680555555555,144.48972276159472L142.5361111111111,146.7163008410236L144.08541666666667,145.05557005158067L145.63472222222222,149.44638307423L147.18402777777777,145.80714037138583L148.73333333333332,143.53958796333293L150.28263888888887,142.65002345365892L151.83194444444442,133.7080766160644L153.38125000000002,141.57279504533753L154.93055555555557,146.1547883820304L156.47986111111112,146.89829643200449L158.02916666666667,149.35504665154582L159.57847222222222,150.3372422348164L161.12777777777777,149.14819814507376L162.67708333333334,151.79262665357717L164.2263888888889,153.68601224092558L165.77569444444444,152.6525112942929L167.325,150.82073210216015L168.87430555555554,153.90998367390904L170.42361111111111,146.45507450057193L171.97291666666666,151.49023487063124L173.5222222222222,146.40546442205834L175.0715277777778,151.91220753869496L176.62083333333334,151.40047849107432L178.17013888888889,150.21526938014418L179.71944444444446,142.42265184720273L181.26875,142.71998231410933L182.81805555555556,146.10441143989536L184.3673611111111,139.68400695133195L185.91666666666666,146.5448489559173L187.46597222222223,150.05118486717225L189.01527777777778,147.72374251744077L190.56458333333333,146.71528474844055L192.11388888888888,147.230705048779L193.66319444444443,149.32519477971755L195.21249999999998,147.78917116146303L196.76180555555558,142.93478447330605L198.31111111111113,148.26474276860122L199.86041666666668,152.30926761436203L201.40972222222223,148.25598941688378L202.95902777777778,146.18531390693568L204.50833333333333,148.0242464105295L206.0576388888889,149.44473671674774L207.60694444444445,147.17614767408395L209.15625,147.60364392671605L210.70555555555555,152.4712534384347L212.2548611111111,151.61743571975336L213.80416666666667,148.00268112789692L215.35347222222222,152.51546887857384L216.90277777777777,149.96178612889452L218.45208333333332,147.42245956529143L220.00138888888887,153.6739717261134L221.55069444444442,156.46087522126072L223.10000000000002,159.84736766109967L224.64930555555557,158.53628047519982L226.19861111111112,157.26607058175838L227.74791666666667,153.29222000675466L229.29722222222222,153.81539490841067L230.84652777777777,149.3041782082453L232.39583333333334,151.73163183339443L233.9451388888889,147.18358931427008L235.49444444444444,144.35113469055182L237.04375,141.68515865380098L238.59305555555554,145.92304904684144L240.14236111111111,147.5862529720349L241.69166666666666,150.77649317058817L243.2409722222222,150.09710925741732L244.7902777777778,153.3307375068887L246.33958333333334,153.15697183343318L247.88888888888889,155.77283142884107L249.43819444444446,155.53294472026548L250.9875,155.69505667762593L252.53680555555556,151.92099037216087L254.0861111111111,149.07719415692083L255.63541666666666,148.12835687558407L257.18472222222226,153.81404425001477L258.7340277777778,147.46149309454162L260.28333333333336,143.4779455422032L261.8326388888889,145.74156480781247L263.38194444444446,146.9219116315366" style="fill: none;" fill="none"></path></g></g></g></g><g opacity="0.2"><g><g><g><path stroke="rgb(255, 112, 67)" stroke-width="2px" d="M37.18333333333333,-1.20178449153904L38.73263888888889,32.87307929992674L40.28194444444444,28.373375058174116L41.83125,22.085207819938642L43.38055555555555,14.158234119415264L44.929861111111116,34.47989058494566L46.479166666666664,30.328451514244062L48.02847222222222,40.92518162727354L49.57777777777778,32.144450068473795L51.12708333333333,31.129368066787702L52.67638888888889,26.525951743125898L54.22569444444444,23.223292350769025L55.775000000000006,34.025579810142496L57.324305555555554,44.679455280303955L58.87361111111111,43.92567586898804L60.422916666666666,37.95450460910795L61.97222222222222,33.03186249732969L63.52152777777778,48.94767415523529L65.07083333333334,55.37331175804138L66.62013888888889,69.58840084075928L68.16944444444444,15.384059071540813L69.71875,63.625630259513855L71.26805555555555,49.92832374572754L72.81736111111111,70.51294219493866L74.36666666666666,80.45473051071167L75.91597222222221,82.02140522003174L77.46527777777779,80.70358765125275L79.01458333333333,82.5870509147644L80.56388888888888,81.12792563438416L82.11319444444445,77.90170204639435L83.6625,99.81998008489609L85.21180555555556,97.25059103965759L86.7611111111111,126.01246637105942L88.31041666666667,127.18091261386871L89.85972222222223,107.0259992480278L91.40902777777778,115.91109108924866L92.95833333333333,112.10286122560501L94.50763888888889,116.77882415056229L96.05694444444444,126.3460562825203L97.60624999999999,104.27350652217865L99.15555555555557,123.20326906442642L100.70486111111111,136.6288499236107L102.25416666666666,116.67664182186127L103.80347222222223,135.42291176319122L105.35277777777777,134.89315044879913L106.90208333333334,115.22010934352875L108.45138888888889,126.80402290821075L110.00069444444443,127.19118010997772L111.55000000000001,126.76155281066895L113.09930555555556,146.09283667802814L114.64861111111111,133.19416505098343L116.19791666666667,140.8636216521263L117.74722222222222,146.1952005028725L119.29652777777777,126.04873967170715L120.84583333333333,138.3199532032013L122.3951388888889,139.52700626850128L123.94444444444444,136.14039194583893L125.49375,142.35922765731814L127.04305555555555,162.61048954725268L128.59236111111113,143.92380219697955L130.14166666666668,146.9037873744965L131.69097222222223,148.96387231349948L133.24027777777778,132.22370517253876L134.78958333333333,152.42267024517062L136.33888888888887,136.17368352413177L137.88819444444445,142.02773791551593L139.4375,144.1141138672829L140.98680555555555,146.955150783062L142.5361111111111,150.05616796016696L144.08541666666667,142.5644738674164L145.63472222222222,156.03260260820392L147.18402777777777,140.3482763171196L148.73333333333332,140.1382593512535L150.28263888888887,141.31567668914795L151.83194444444442,120.29515635967255L153.38125000000002,153.36987268924716L154.93055555555557,153.02777838706973L156.47986111111112,148.01355850696567L158.02916666666667,153.04017198085788L159.57847222222222,151.81053560972217L161.12777777777777,147.36463201045993L162.67708333333334,155.75926941633227L164.2263888888889,156.52609062194827L165.77569444444444,151.1022598743439L167.325,148.07306331396106L168.87430555555554,158.54386103153232L170.42361111111111,135.27271074056625L171.97291666666666,159.04297542572024L173.5222222222222,138.7783087491989L175.0715277777778,160.17232221364978L176.62083333333334,150.63288491964343L178.17013888888889,148.43745571374896L179.71944444444446,130.73372554779053L181.26875,143.16597801446918L182.81805555555556,151.1810551285744L184.3673611111111,130.0534002184868L185.91666666666666,156.8361119627953L187.46597222222223,155.3106887340546L189.01527777777778,144.23257899284366L190.56458333333333,145.2025980949402L192.11388888888888,148.00383549928668L193.66319444444443,152.46692937612536L195.21249999999998,145.4851357340813L196.76180555555558,135.65320444107056L198.31111111111113,156.25968021154407L199.86041666666668,158.37605488300326L201.40972222222223,142.17607212066653L202.95902777777778,143.07930064201358L204.50833333333333,150.7826451659203L206.0576388888889,151.575472176075L207.60694444444445,143.77326411008838L209.15625,148.2448883056641L210.70555555555555,159.77266770601275L212.2548611111111,150.3367091417313L213.80416666666667,142.58054924011233L215.35347222222222,159.2846505045891L216.90277777777777,146.1312620043755L218.45208333333332,143.6134697198868L220.00138888888887,163.05123996734622L221.55069444444442,160.64123046398166L223.10000000000002,164.92710632085803L224.64930555555557,156.56964969635013L226.19861111111112,155.36075574159625L227.74791666666667,147.331444144249L229.29722222222222,154.6001572608948L230.84652777777777,142.53735315799716L232.39583333333334,155.3728122711182L233.9451388888889,140.3615255355835L235.49444444444444,140.10245275497437L237.04375,137.68619459867477L238.59305555555554,152.27988463640216L240.14236111111111,150.08105885982516L241.69166666666666,155.56185346841815L243.2409722222222,149.078033387661L244.7902777777778,158.18117988109591L246.33958333333334,152.89632332324985L247.88888888888889,159.69662082195285L249.43819444444446,155.17311465740207L250.9875,155.93822461366656L252.53680555555556,146.25989091396335L254.0861111111111,144.8114998340607L255.63541666666666,146.70510095357898L257.18472222222226,162.3425753116608L258.7340277777778,137.93266636133194L260.28333333333336,137.50262421369553L261.8326388888889,149.13699370622638L263.38194444444446,148.69243186712268" style="fill: none;" fill="none"></path></g></g></g></g></g></g><g transform="translate(51, 174)" clip-path="url(#clip_1)"><clipPath id="clip_1"><rect width="278" height="26"></rect></clipPath><g><g><line x1="0" y1="0" x2="0" y2="5" style="visibility: inherit;" fill="rgb(0, 0, 0)" stroke="rgb(204, 204, 204)" stroke-width="1px"></line><line x1="30.98611111111111" y1="0" x2="30.98611111111111" y2="5" style="visibility: inherit;" fill="rgb(0, 0, 0)" stroke="rgb(204, 204, 204)" stroke-width="1px"></line><line x1="61.97222222222222" y1="0" x2="61.97222222222222" y2="5" style="visibility: inherit;" fill="rgb(0, 0, 0)" stroke="rgb(204, 204, 204)" stroke-width="1px"></line><line x1="92.95833333333333" y1="0" x2="92.95833333333333" y2="5" style="visibility: inherit;" fill="rgb(0, 0, 0)" stroke="rgb(204, 204, 204)" stroke-width="1px"></line><line x1="123.94444444444444" y1="0" x2="123.94444444444444" y2="5" style="visibility: inherit;" fill="rgb(0, 0, 0)" stroke="rgb(204, 204, 204)" stroke-width="1px"></line><line x1="154.93055555555557" y1="0" x2="154.93055555555557" y2="5" style="visibility: inherit;" fill="rgb(0, 0, 0)" stroke="rgb(204, 204, 204)" stroke-width="1px"></line><line x1="185.91666666666666" y1="0" x2="185.91666666666666" y2="5" style="visibility: inherit;" fill="rgb(0, 0, 0)" stroke="rgb(204, 204, 204)" stroke-width="1px"></line><line x1="216.90277777777777" y1="0" x2="216.90277777777777" y2="5" style="visibility: inherit;" fill="rgb(0, 0, 0)" stroke="rgb(204, 204, 204)" stroke-width="1px"></line><line x1="247.88888888888889" y1="0" x2="247.88888888888889" y2="5" style="visibility: inherit;" fill="rgb(0, 0, 0)" stroke="rgb(204, 204, 204)" stroke-width="1px"></line><line x1="278.875" y1="0" x2="278.875" y2="5" style="visibility: inherit;" fill="rgb(0, 0, 0)" stroke="rgb(204, 204, 204)" stroke-width="1px"></line></g><g transform="translate(0, 8)"><text x="0" y="0" dx="0em" dy="0.95em" style="text-anchor: middle; visibility: hidden; font-family: Roboto, sans-serif; font-size: 12px; font-weight: 200;" fill="rgb(33, 33, 33)" stroke="none" stroke-width="1px">-20</text><text x="30.98611111111111" y="0" dx="0em" dy="0.95em" style="text-anchor: middle; visibility: inherit; font-family: Roboto, sans-serif; font-size: 12px; font-weight: 200;" fill="rgb(33, 33, 33)" stroke="none" stroke-width="1px">0</text><text x="61.97222222222222" y="0" dx="0em" dy="0.95em" style="text-anchor: middle; visibility: inherit; font-family: Roboto, sans-serif; font-size: 12px; font-weight: 200;" fill="rgb(33, 33, 33)" stroke="none" stroke-width="1px">20</text><text x="92.95833333333333" y="0" dx="0em" dy="0.95em" style="text-anchor: middle; visibility: inherit; font-family: Roboto, sans-serif; font-size: 12px; font-weight: 200;" fill="rgb(33, 33, 33)" stroke="none" stroke-width="1px">40</text><text x="123.94444444444444" y="0" dx="0em" dy="0.95em" style="text-anchor: middle; visibility: inherit; font-family: Roboto, sans-serif; font-size: 12px; font-weight: 200;" fill="rgb(33, 33, 33)" stroke="none" stroke-width="1px">60</text><text x="154.93055555555557" y="0" dx="0em" dy="0.95em" style="text-anchor: middle; visibility: inherit; font-family: Roboto, sans-serif; font-size: 12px; font-weight: 200;" fill="rgb(33, 33, 33)" stroke="none" stroke-width="1px">80</text><text x="185.91666666666666" y="0" dx="0em" dy="0.95em" style="text-anchor: middle; visibility: inherit; font-family: Roboto, sans-serif; font-size: 12px; font-weight: 200;" fill="rgb(33, 33, 33)" stroke="none" stroke-width="1px">100</text><text x="216.90277777777777" y="0" dx="0em" dy="0.95em" style="text-anchor: middle; visibility: inherit; font-family: Roboto, sans-serif; font-size: 12px; font-weight: 200;" fill="rgb(33, 33, 33)" stroke="none" stroke-width="1px">120</text><text x="247.88888888888889" y="0" dx="0em" dy="0.95em" style="text-anchor: middle; visibility: inherit; font-family: Roboto, sans-serif; font-size: 12px; font-weight: 200;" fill="rgb(33, 33, 33)" stroke="none" stroke-width="1px">140</text><text x="278.875" y="0" dx="0em" dy="0.95em" style="text-anchor: middle; visibility: hidden; font-family: Roboto, sans-serif; font-size: 12px; font-weight: 200;" fill="rgb(33, 33, 33)" stroke="none" stroke-width="1px">160</text></g><line x1="0" y1="0" x2="278.875" y2="0" fill="rgb(0, 0, 0)" stroke="rgb(204, 204, 204)" stroke-width="1px"></line></g></g></g></g></svg>