<svg viewBox="0 0 330 200" xmlns="http://www.w3.org/2000/svg"><g><g><g><g><g><line x1="51.5625" y1="177" x2="46.5625" y2="177" style="visibility: inherit;" fill="rgb(0, 0, 0)" stroke="rgb(204, 204, 204)" stroke-width="1px"></line><line x1="51.5625" y1="157.33333333333337" x2="46.5625" y2="157.33333333333337" style="visibility: inherit;" fill="rgb(0, 0, 0)" stroke="rgb(204, 204, 204)" stroke-width="1px"></line><line x1="51.5625" y1="137.66666666666666" x2="46.5625" y2="137.66666666666666" style="visibility: inherit;" fill="rgb(0, 0, 0)" stroke="rgb(204, 204, 204)" stroke-width="1px"></line><line x1="51.5625" y1="118.00000000000003" x2="46.5625" y2="118.00000000000003" style="visibility: inherit;" fill="rgb(0, 0, 0)" stroke="rgb(204, 204, 204)" stroke-width="1px"></line><line x1="51.5625" y1="98.33333333333334" x2="46.5625" y2="98.33333333333334" style="visibility: inherit;" fill="rgb(0, 0, 0)" stroke="rgb(204, 204, 204)" stroke-width="1px"></line><line x1="51.5625" y1="78.66666666666666" x2="46.5625" y2="78.66666666666666" style="visibility: inherit;" fill="rgb(0, 0, 0)" stroke="rgb(204, 204, 204)" stroke-width="1px"></line><line x1="51.5625" y1="59.00000000000001" x2="46.5625" y2="59.00000000000001" style="visibility: inherit;" fill="rgb(0, 0, 0)" stroke="rgb(204, 204, 204)" stroke-width="1px"></line><line x1="51.5625" y1="39.33333333333333" x2="46.5625" y2="39.33333333333333" style="visibility: inherit;" fill="rgb(0, 0, 0)" stroke="rgb(204, 204, 204)" stroke-width="1px"></line><line x1="51.5625" y1="19.666666666666696" x2="46.5625" y2="19.666666666666696" style="visibility: inherit;" fill="rgb(0, 0, 0)" stroke="rgb(204, 204, 204)" stroke-width="1px"></line><line x1="51.5625" y1="0" x2="46.5625" y2="0" style="visibility: inherit;" fill="rgb(0, 0, 0)" stroke="rgb(204, 204, 204)" stroke-width="1px"></line></g><g transform="translate(41.5625, 0)"><text x="0" y="177" dx="0em" dy="0.3em" style="text-anchor: end; visibility: hidden; font-family: Roboto, sans-serif; font-size: 12px; font-weight: 200;" fill="rgb(33, 33, 33)" stroke="none" stroke-width="1px">0.55</text><text x="0" y="157.33333333333337" dx="0em" dy="0.3em" style="text-anchor: end; visibility: inherit; font-family: Roboto, sans-serif; font-size: 12px; font-weight: 200;" fill="rgb(33, 33, 33)" stroke="none" stroke-width="1px">0.6</text><text x="0" y="137.66666666666666" dx="0em" dy="0.3em" style="text-anchor: end; visibility: hidden; font-family: Roboto, sans-serif; font-size: 12px; font-weight: 200;" fill="rgb(33, 33, 33)" stroke="none" stroke-width="1px">0.65</text><text x="0" y="118.00000000000003" dx="0em" dy="0.3em" style="text-anchor: end; visibility: inherit; font-family: Roboto, sans-serif; font-size: 12px; font-weight: 200;" fill="rgb(33, 33, 33)" stroke="none" stroke-width="1px">0.7</text><text x="0" y="98.33333333333334" dx="0em" dy="0.3em" style="text-anchor: end; visibility: hidden; font-family: Roboto, sans-serif; font-size: 12px; font-weight: 200;" fill="rgb(33, 33, 33)" stroke="none" stroke-width="1px">0.75</text><text x="0" y="78.66666666666666" dx="0em" dy="0.3em" style="text-anchor: end; visibility: inherit; font-family: Roboto, sans-serif; font-size: 12px; font-weight: 200;" fill="rgb(33, 33, 33)" stroke="none" stroke-width="1px">0.8</text><text x="0" y="59.00000000000001" dx="0em" dy="0.3em" style="text-anchor: end; visibility: hidden; font-family: Roboto, sans-serif; font-size: 12px; font-weight: 200;" fill="rgb(33, 33, 33)" stroke="none" stroke-width="1px">0.85</text><text x="0" y="39.33333333333333" dx="0em" dy="0.3em" style="text-anchor: end; visibility: inherit; font-family: Roboto, sans-serif; font-size: 12px; font-weight: 200;" fill="rgb(33, 33, 33)" stroke="none" stroke-width="1px">0.9</text><text x="0" y="19.666666666666696" dx="0em" dy="0.3em" style="text-anchor: end; visibility: hidden; font-family: Roboto, sans-serif; font-size: 12px; font-weight: 200;" fill="rgb(33, 33, 33)" stroke="none" stroke-width="1px">0.95</text><text x="0" y="0" dx="0em" dy="0.3em" style="text-anchor: end; visibility: hidden; font-family: Roboto, sans-serif; font-size: 12px; font-weight: 200;" fill="rgb(33, 33, 33)" stroke="none" stroke-width="1px">1</text></g><line x1="51.5625" y1="0" x2="51.5625" y2="177" fill="rgb(0, 0, 0)" stroke="rgb(204, 204, 204)" stroke-width="1px"></line></g></g><g transform="translate(51, 0)" clip-path="url(#clip_0)"><clipPath id="clip_0"><rect width="278" height="177"></rect></clipPath><g><g><g><line x1="0" y1="0" x2="0" y2="177" fill="rgb(0, 0, 0)" stroke="rgb(66, 66, 66)" stroke-width="1px" opacity="0.25"></line><line x1="30.9375" y1="0" x2="30.9375" y2="177" fill="rgb(0, 0, 0)" stroke="rgb(66, 66, 66)" stroke-width="1px" opacity="0.25"></line><line x1="61.875" y1="0" x2="61.875" y2="177" fill="rgb(0, 0, 0)" stroke="rgb(66, 66, 66)" stroke-width="1px" opacity="0.25"></line><line x1="92.8125" y1="0" x2="92.8125" y2="177" fill="rgb(0, 0, 0)" stroke="rgb(66, 66, 66)" stroke-width="1px" opacity="0.25"></line><line x1="123.75" y1="0" x2="123.75" y2="177" fill="rgb(0, 0, 0)" stroke="rgb(66, 66, 66)" stroke-width="1px" opacity="0.25"></line><line x1="154.6875" y1="0" x2="154.6875" y2="177" fill="rgb(0, 0, 0)" stroke="rgb(66, 66, 66)" stroke-width="1px" opacity="0.25"></line><line x1="185.625" y1="0" x2="185.625" y2="177" fill="rgb(0, 0, 0)" stroke="rgb(66, 66, 66)" stroke-width="1px" opacity="0.25"></line><line x1="216.5625" y1="0" x2="216.5625" y2="177" fill="rgb(0, 0, 0)" stroke="rgb(66, 66, 66)" stroke-width="1px" opacity="0.25"></line><line x1="247.5" y1="0" x2="247.5" y2="177" fill="rgb(0, 0, 0)" stroke="rgb(66, 66, 66)" stroke-width="1px" opacity="0.25"></line><line x1="278.4375" y1="0" x2="278.4375" y2="177" fill="rgb(0, 0, 0)" stroke="rgb(66, 66, 66)" stroke-width="1px" opacity="0.25"></line></g><g><line x1="0" y1="177" x2="278.4375" y2="177" fill="rgb(0, 0, 0)" stroke="rgb(66, 66, 66)" stroke-width="1px" opacity="0.25"></line><line x1="0" y1="157.33333333333337" x2="278.4375" y2="157.33333333333337" fill="rgb(0, 0, 0)" stroke="rgb(66, 66, 66)" stroke-width="1px" opacity="0.25"></line><line x1="0" y1="137.66666666666666" x2="278.4375" y2="137.66666666666666" fill="rgb(0, 0, 0)" stroke="rgb(66, 66, 66)" stroke-width="1px" opacity="0.25"></line><line x1="0" y1="118.00000000000003" x2="278.4375" y2="118.00000000000003" fill="rgb(0, 0, 0)" stroke="rgb(66, 66, 66)" stroke-width="1px" opacity="0.25"></line><line x1="0" y1="98.33333333333334" x2="278.4375" y2="98.33333333333334" fill="rgb(0, 0, 0)" stroke="rgb(66, 66, 66)" stroke-width="1px" opacity="0.25"></line><line x1="0" y1="78.66666666666666" x2="278.4375" y2="78.66666666666666" fill="rgb(0, 0, 0)" stroke="rgb(66, 66, 66)" stroke-width="1px" opacity="0.25"></line><line x1="0" y1="59.00000000000001" x2="278.4375" y2="59.00000000000001" fill="rgb(0, 0, 0)" stroke="rgb(66, 66, 66)" stroke-width="1px" opacity="0.25"></line><line x1="0" y1="39.33333333333333" x2="278.4375" y2="39.33333333333333" fill="rgb(0, 0, 0)" stroke="rgb(66, 66, 66)" stroke-width="1px" opacity="0.25"></line><line x1="0" y1="19.666666666666696" x2="278.4375" y2="19.666666666666696" fill="rgb(0, 0, 0)" stroke="rgb(66, 66, 66)" stroke-width="1px" opacity="0.25"></line><line x1="0" y1="0" x2="278.4375" y2="0" fill="rgb(0, 0, 0)" stroke="rgb(66, 66, 66)" stroke-width="1px" opacity="0.25"></line></g></g></g><g><g><line x1="0" y1="393.33333333333337" x2="278.4375" y2="393.33333333333337" fill="rgb(0, 0, 0)" stroke="rgb(153, 153, 153)" stroke-width="1.5px"></line></g></g><g><g><line x1="30.9375" y1="0" x2="30.9375" y2="177" fill="rgb(0, 0, 0)" stroke="rgb(153, 153, 153)" stroke-width="1.5px"></line></g></g><g><g><g><g><g><path stroke="rgb(255, 112, 67)" stroke-width="2px" d="M41.765625,177.91239072461065L43.3125,170.1446703221051L44.859375,164.5794543699341L46.40625,157.8995736743836L47.953125,151.98763271626683L49.5,146.91249762070439L51.04687499999999,141.59892745925026L52.59375,136.24582432652997L54.140625,132.96669470616354L55.6875,128.48215515870376L57.234375,122.99473648780973L58.78125,119.35321186673208L60.328125,115.21048980247541L61.875,110.94183977439434L63.421875,106.21299607701735L64.96875,101.24299197290642L66.515625,97.45687889552171L68.0625,94.7656655395008L69.609375,88.7106397511979L71.15625,84.97274445224399L72.703125,81.75105269862186L74.25,76.7063346089891L75.796875,72.80542904940299L77.34375,70.25510525831831L78.890625,65.61320769485826L80.43749999999999,64.3664410772899L81.984375,61.345793762385966L83.53125,56.70140433430495L85.078125,56.047507005337316L86.625,52.9280582011276L88.171875,49.168394479165826L89.71875,47.26221930650996L91.265625,43.63614557373184L92.8125,40.55146454272184L94.359375,39.43488120047614L95.90625,39.2544147113589L97.453125,37.39798208459023L99,35.479976377853085L100.546875,34.7137658050665L102.09374999999999,32.960409815063564L103.640625,33.726469811796306L105.1875,32.96239702123624L106.73437500000001,30.930621514004294L108.28125,29.396893594221847L109.828125,29.595465588703686L111.375,26.84764730619683L112.921875,24.219998683650385L114.46875,23.307704547713737L116.015625,23.179881346029283L117.5625,21.634746256550876L119.109375,22.595659651208557L120.65625,22.298140699375814L122.203125,22.014738663857607L123.75,21.180402404959242L125.296875,20.57490998520169L126.84375,20.001833204510106L128.390625,19.308354713965823L129.9375,18.822346761891826L131.484375,17.86644695305999L133.03125,18.132013627514254L134.578125,18.151502538894675L136.125,18.61771897227074L137.671875,17.708709850413612L139.21875,17.547897228302336L140.765625,17.276588755072254L142.3125,16.414548204673004L143.85937500000003,16.107095825473056L145.40625,14.908706316033804L146.953125,16.672041238554222L148.5,16.576263639057412L150.046875,15.504869619642516L151.59375,16.330474376460835L153.140625,15.252505397666063L154.6875,14.81550533922626L156.234375,14.763077255201992L157.78125,14.2071764604922L159.328125,14.18830797692194L160.87499999999997,13.862314893524188L162.421875,14.400944316617839L163.96875,13.4654527530465L165.515625,12.764306721611447L167.0625,11.854135587328866L168.609375,12.426851030894591L170.15625,14.134040178880177L171.703125,14.633909723376304L173.25,13.815013325938637L174.796875,12.484559549925148L176.34375,12.175770799738663L177.890625,13.039385438217222L179.4375,12.928219612590556L180.984375,12.267155315171948L182.53125,11.346072792425542L184.078125,12.261864447244864L185.625,12.216974638093848L187.17187500000003,11.560706143889462L188.71875,10.292868680942249L190.265625,10.755865613930375L191.8125,11.173514867015447L193.359375,11.24929289670057L194.90625,11.854164087680608L196.453125,11.517831335807395L198,11.455882777975743L199.546875,11.768346065406083L201.09375,11.011826813692284L202.640625,11.222210300251527L204.18749999999997,11.383400821060743L205.734375,11.235373375835543L207.28125,11.251447573118876L208.828125,10.876499240485895L210.375,10.966192856364295L211.921875,10.985048597017624L213.46875000000003,10.961401612535939L215.015625,10.912252992973217L216.5625,11.302317101112317L218.109375,10.277686348568155L219.65625,9.383205710457204L221.203125,9.370961271885902L222.75,9.048942615487482L224.296875,8.750850135027337L225.84375,8.816736404462015L227.390625,8.821298359451717L228.9375,8.928926196864078L230.48437499999997,8.64387047718219L232.03125,9.067211225213162L233.578125,8.656920636444209L235.125,9.005111085225487L236.671875,8.829432503491235L238.21875,9.493211056456726L239.765625,8.98244139293779L241.3125,9.130502681374251L242.859375,9.394150976602056L244.40625,9.097826244988305L245.953125,9.619286872481265L247.5,8.778384695968L249.046875,9.182880185358318L250.59375,8.341729161528304L252.140625,7.732147882811729L253.6875,7.471289780000368L255.234375,8.363662806904033L256.78125,8.199831156585047L258.328125,8.0665623597225L259.875,8.930607683574397L261.421875,8.470067847042449L262.96875,8.683227460544762" style="fill: none;" fill="none"></path></g></g></g></g><g opacity="0.2"><g><g><g><path stroke="rgb(255, 112, 67)" stroke-width="2px" d="M38.671875,179.53481396039328L40.21874999999999,171.23110254605612L41.765625,164.5881521701813L43.3125,158.8192594051361L44.859375,156.37184182802838L46.40625,147.980729341507L47.953125,143.17334214846295L49.5,139.32741363843283L51.04687499999999,133.6459219455719L52.59375,128.22665691375732L54.140625,128.05185476938885L55.6875,121.75850868225099L57.234375,114.76593057314557L58.78125,113.89184951782227L60.328125,108.99703780810039L61.875,104.53925490379333L63.421875,99.11998987197876L64.96875,93.78814935684204L66.515625,91.77778402964276L68.0625,90.72887738545737L69.609375,79.62814410527548L71.15625,79.36591744422913L72.703125,76.91852331161499L74.25,69.13926521937053L75.796875,66.95407430330914L77.34375,66.42962098121643L78.890625,58.650362888971976L80.43749999999999,62.49629139900209L81.984375,56.814823150634766L83.53125,49.73482052485149L85.078125,55.066661039988205L86.625,48.24888507525126L88.171875,43.52889895439149L89.71875,44.402956565221146L91.265625,38.19703499476115L92.8125,35.92444300651551L94.359375,37.76000618934631L95.90625,38.9837149779002L97.453125,34.61333314577739L99,32.60296781857808L100.546875,33.56444994608562L102.09374999999999,30.330375830332446L103.640625,34.87555980682374L105.1875,31.816287835439052L106.73437500000001,27.8829582532247L108.28125,27.09630171457926L109.828125,29.893323580423985L111.375,22.72591988245647L112.921875,20.278525749842334L114.46875,21.939263343811028L116.015625,22.9881465435028L117.5625,19.317043622334804L119.109375,24.037029743194573L120.65625,21.85186227162679L122.203125,21.589635610580437L123.75,19.928898016611743L125.296875,19.666671355565395L126.84375,19.14221803347269L128.390625,18.26813697814942L129.9375,18.09333483378092L131.484375,16.432597239812225L133.03125,18.53036363919577L134.578125,18.18073590596518L136.125,19.317043622334804L137.671875,16.345196167627964L139.21875,17.306678295135498L140.765625,16.869626045227058L142.3125,15.121487379074104L143.85937500000003,15.645917256673174L145.40625,13.1111220518748L146.953125,19.317043622334804L148.5,16.432597239812225L150.046875,13.89777859052022L151.59375,17.56888151168824L153.140625,13.63555192947387L154.6875,14.160005251566572L156.234375,14.684435129165642L157.78125,13.37332526842754L159.328125,14.160005251566572L160.87499999999997,13.37332526842754L162.421875,15.208888451258344L163.96875,12.062215407689417L165.515625,11.712587674458826L167.0625,10.488878885904944L168.609375,13.285924196243279L170.15625,16.694823900858555L171.703125,15.383714040120454L173.25,12.586668729782097L174.796875,10.488878885904944L176.34375,11.712587674458826L177.890625,14.334807395935051L179.4375,12.761470874150598L180.984375,11.275558869043994L182.53125,9.964449008305872L184.078125,13.63555192947387L185.625,12.149639924367266L187.17187500000003,10.576303402582813L188.71875,8.391112486521399L190.265625,11.450361013412476L191.8125,11.799988746643066L193.359375,11.362959941228235L194.90625,12.761470874150598L196.453125,11.013332207997644L198,11.362959941228235L199.546875,12.237040996551507L201.09375,9.877047936121631L202.640625,11.537785530090325L204.18749999999997,11.625186602274585L205.734375,11.013332207997644L207.28125,11.275558869043994L208.828125,10.314076741536462L210.375,11.100733280181885L211.921875,11.013332207997644L213.46875000000003,10.925931135813403L215.015625,10.838530063629143L216.5625,11.887413263320916L218.109375,8.74074021975199L219.65625,8.041484753290808L221.203125,9.35259461402893L222.75,8.5659146308899L224.296875,8.303711414337158L225.84375,8.9155658086141L227.390625,8.82814129193623L228.9375,9.09036795298258L230.48437499999997,8.216286897659309L232.03125,9.702222347259521L233.578125,8.041484753290808L235.125,9.527396758397412L236.671875,8.5659146308899L238.21875,10.488878885904944L239.765625,8.216286897659309L241.3125,9.35259461402893L242.859375,9.789623419443762L244.40625,8.653339147567749L245.953125,10.401477813720703L247.5,7.517031431198126L249.046875,9.789623419443762L250.59375,7.080002625783276L252.140625,6.817775964736945L253.6875,7.080002625783276L255.234375,9.702222347259521L256.78125,7.954083681106567L258.328125,7.866659164428717L259.875,10.226675669352222L261.421875,7.779258092244458L262.96875,9.00296688079834" style="fill: none;" fill="none"></path></g></g></g></g></g></g><g transform="translate(51, 177)" clip-path="url(#clip_1)"><clipPath id="clip_1"><rect width="278" height="23"></rect></clipPath><g><g><line x1="0" y1="0" x2="0" y2="5" style="visibility: inherit;" fill="rgb(0, 0, 0)" stroke="rgb(204, 204, 204)" stroke-width="1px"></line><line x1="30.9375" y1="0" x2="30.9375" y2="5" style="visibility: inherit;" fill="rgb(0, 0, 0)" stroke="rgb(204, 204, 204)" stroke-width="1px"></line><line x1="61.875" y1="0" x2="61.875" y2="5" style="visibility: inherit;" fill="rgb(0, 0, 0)" stroke="rgb(204, 204, 204)" stroke-width="1px"></line><line x1="92.8125" y1="0" x2="92.8125" y2="5" style="visibility: inherit;" fill="rgb(0, 0, 0)" stroke="rgb(204, 204, 204)" stroke-width="1px"></line><line x1="123.75" y1="0" x2="123.75" y2="5" style="visibility: inherit;" fill="rgb(0, 0, 0)" stroke="rgb(204, 204, 204)" stroke-width="1px"></line><line x1="154.6875" y1="0" x2="154.6875" y2="5" style="visibility: inherit;" fill="rgb(0, 0, 0)" stroke="rgb(204, 204, 204)" stroke-width="1px"></line><line x1="185.625" y1="0" x2="185.625" y2="5" style="visibility: inherit;" fill="rgb(0, 0, 0)" stroke="rgb(204, 204, 204)" stroke-width="1px"></line><line x1="216.5625" y1="0" x2="216.5625" y2="5" style="visibility: inherit;" fill="rgb(0, 0, 0)" stroke="rgb(204, 204, 204)" stroke-width="1px"></line><line x1="247.5" y1="0" x2="247.5" y2="5" style="visibility: inherit;" fill="rgb(0, 0, 0)" stroke="rgb(204, 204, 204)" stroke-width="1px"></line><line x1="278.4375" y1="0" x2="278.4375" y2="5" style="visibility: inherit;" fill="rgb(0, 0, 0)" stroke="rgb(204, 204, 204)" stroke-width="1px"></line></g><g transform="translate(0, 8)"><text x="0" y="0" dx="0em" dy="0.95em" style="text-anchor: middle; visibility: hidden; font-family: Roboto, sans-serif; font-size: 12px; font-weight: 200;" fill="rgb(33, 33, 33)" stroke="none" stroke-width="1px">-20</text><text x="30.9375" y="0" dx="0em" dy="0.95em" style="text-anchor: middle; visibility: inherit; font-family: Roboto, sans-serif; font-size: 12px; font-weight: 200;" fill="rgb(33, 33, 33)" stroke="none" stroke-width="1px">0</text><text x="61.875" y="0" dx="0em" dy="0.95em" style="text-anchor: middle; visibility: inherit; font-family: Roboto, sans-serif; font-size: 12px; font-weight: 200;" fill="rgb(33, 33, 33)" stroke="none" stroke-width="1px">20</text><text x="92.8125" y="0" dx="0em" dy="0.95em" style="text-anchor: middle; visibility: inherit; font-family: Roboto, sans-serif; font-size: 12px; font-weight: 200;" fill="rgb(33, 33, 33)" stroke="none" stroke-width="1px">40</text><text x="123.75" y="0" dx="0em" dy="0.95em" style="text-anchor: middle; visibility: inherit; font-family: Roboto, sans-serif; font-size: 12px; font-weight: 200;" fill="rgb(33, 33, 33)" stroke="none" stroke-width="1px">60</text><text x="154.6875" y="0" dx="0em" dy="0.95em" style="text-anchor: middle; visibility: inherit; font-family: Roboto, sans-serif; font-size: 12px; font-weight: 200;" fill="rgb(33, 33, 33)" stroke="none" stroke-width="1px">80</text><text x="185.625" y="0" dx="0em" dy="0.95em" style="text-anchor: middle; visibility: inherit; font-family: Roboto, sans-serif; font-size: 12px; font-weight: 200;" fill="rgb(33, 33, 33)" stroke="none" stroke-width="1px">100</text><text x="216.5625" y="0" dx="0em" dy="0.95em" style="text-anchor: middle; visibility: inherit; font-family: Roboto, sans-serif; font-size: 12px; font-weight: 200;" fill="rgb(33, 33, 33)" stroke="none" stroke-width="1px">120</text><text x="247.5" y="0" dx="0em" dy="0.95em" style="text-anchor: middle; visibility: inherit; font-family: Roboto, sans-serif; font-size: 12px; font-weight: 200;" fill="rgb(33, 33, 33)" stroke="none" stroke-width="1px">140</text><text x="278.4375" y="0" dx="0em" dy="0.95em" style="text-anchor: middle; visibility: hidden; font-family: Roboto, sans-serif; font-size: 12px; font-weight: 200;" fill="rgb(33, 33, 33)" stroke="none" stroke-width="1px">160</text></g><line x1="0" y1="0" x2="278.4375" y2="0" fill="rgb(0, 0, 0)" stroke="rgb(204, 204, 204)" stroke-width="1px"></line></g></g></g></g></svg>